<?xml version="1.0" encoding="UTF-8" standalone="no"?><!DOCTYPE svg PUBLIC "-//W3C//DTD SVG 1.1//EN" "http://www.w3.org/Graphics/SVG/1.1/DTD/svg11.dtd"><svg width="100%" height="100%" viewBox="0 0 103 101" version="1.1" xmlns="http://www.w3.org/2000/svg" xmlns:xlink="http://www.w3.org/1999/xlink" xml:space="preserve" xmlns:serif="http://www.serif.com/" style="fill-rule:evenodd;clip-rule:evenodd;stroke-linejoin:round;stroke-miterlimit:2;"><g><g><path d="M13.718,74.168l0,10.765l0.003,0.14c-0.708,-1.095 -2.355,-2.889 -5.553,-2.889c-3.209,0 -8.159,2.362 -8.159,9.061c0,6.699 4.776,9.09 8.401,9.09c2.473,0 4.498,-1.334 5.559,-2.867l0,2.431l4.564,0l0,-25.731l-4.815,0Zm-4.438,22.187c-2.579,0 -4.669,-2.262 -4.669,-5.053c0,-2.792 2.09,-5.054 4.669,-5.054c2.579,0 4.67,2.262 4.67,5.054c0,2.791 -2.091,5.053 -4.67,5.053Z" style="fill-rule:nonzero;"/><path d="M33.073,93.335c0,0 -0.696,3.02 -4.06,3.02c-3.273,0 -4.534,-2.309 -4.599,-4.182l11.753,0c1.083,-3.601 -0.696,-10.029 -7.85,-10.029c-3.442,0 -8.547,2.517 -8.547,9.061c0,6.544 5.221,9.1 9.011,9.1c4.138,0 7.27,-2.13 8.237,-5.383l-3.945,-1.587Zm-4.679,-7.434c2.63,0 3.558,1.859 3.519,3.098l-7.538,0c0.075,-0.939 1.461,-3.098 4.019,-3.098Z" style="fill-rule:nonzero;"/><path d="M50.476,93.335c0,0 -0.696,3.02 -4.061,3.02c-3.273,0 -4.533,-2.309 -4.599,-4.182l11.754,0c1.082,-3.601 -0.696,-10.029 -7.851,-10.029c-3.442,0 -8.546,2.517 -8.546,9.061c0,6.544 5.22,9.1 9.01,9.1c4.138,0 7.271,-2.13 8.237,-5.383l-3.944,-1.587Zm-4.68,-7.434c2.63,0 3.558,1.859 3.52,3.098l-7.538,0c0.075,-0.939 1.461,-3.098 4.018,-3.098Z" style="fill-rule:nonzero;"/><path d="M83.849,93.335c0,0 -0.696,3.02 -4.061,3.02c-3.273,0 -4.533,-2.309 -4.598,-4.182l11.753,0c1.083,-3.601 -0.696,-10.029 -7.851,-10.029c-3.442,0 -8.546,2.517 -8.546,9.061c0,6.544 5.22,9.1 9.01,9.1c4.138,0 7.271,-2.13 8.237,-5.383l-3.944,-1.587Zm-4.679,-7.434c2.629,0 3.557,1.859 3.519,3.098l-7.538,0c0.075,-0.939 1.462,-3.098 4.019,-3.098Z" style="fill-rule:nonzero;"/><path d="M54.884,82.571l0,3.988l9.282,0l-9.552,9.37l0,3.988l15.738,0l0,-4.182l-9.899,0l9.629,-9.331l0,-3.833l-15.198,0Z" style="fill-rule:nonzero;"/><path d="M97.926,82.145c-2.21,0 -3.646,1.572 -4.177,2.681l0,-2.255l-4.718,0l0,17.347l4.718,0l0,-11.269c0,-1.355 1.083,-2.749 2.475,-2.749c1.392,0 2.398,0.813 2.204,3.098l4.37,0c0.503,-2.594 -0.386,-6.853 -4.872,-6.853Z" style="fill-rule:nonzero;"/></g><g><g><rect x="80.446" y="54.221" width="22.471" height="12.825" style="fill:url(#_Linear1);"/><rect x="0" y="54.221" width="22.471" height="12.825" style="fill:url(#_Linear2);"/><rect x="53.705" y="54.221" width="22.246" height="12.825" style="fill:url(#_Linear3);"/><rect x="26.965" y="54.221" width="22.246" height="12.825" style="fill:url(#_Linear4);"/><rect x="80.446" y="35.996" width="22.471" height="12.825" style="fill:url(#_Linear5);"/><rect x="26.965" y="35.996" width="22.246" height="12.825" style="fill:url(#_Linear6);"/><rect x="26.965" y="17.775" width="22.246" height="12.825" style="fill:url(#_Linear7);"/></g><rect x="53.705" y="35.996" width="22.246" height="12.825" style="fill:url(#_Linear8);"/><g><rect x="80.446" y="30.558" width="22.471" height="0.038" style="fill:none;"/><rect x="80.446" y="17.775" width="22.471" height="12.787" style="fill:url(#_Linear9);"/><rect x="80.446" y="0" width="22.471" height="12.825" style="fill:url(#_Linear10);"/></g></g></g><defs><linearGradient id="_Linear1" x1="0" y1="0" x2="1" y2="0" gradientUnits="userSpaceOnUse" gradientTransform="matrix(-107.261,1.31527e-14,-1.31356e-14,-107.4,105.088,60.635)"><stop offset="0" style="stop-color:#1682b4;stop-opacity:1"/><stop offset="0.03" style="stop-color:#1d75b2;stop-opacity:1"/><stop offset="0.15" style="stop-color:#3748ab;stop-opacity:1"/><stop offset="0.21" style="stop-color:#4137a8;stop-opacity:1"/><stop offset="1" style="stop-color:#4137a8;stop-opacity:1"/></linearGradient><linearGradient id="_Linear2" x1="0" y1="0" x2="1" y2="0" gradientUnits="userSpaceOnUse" gradientTransform="matrix(-107.261,1.31527e-14,-1.31356e-14,-107.4,105.088,60.635)"><stop offset="0" style="stop-color:#1682b4;stop-opacity:1"/><stop offset="0.18" style="stop-color:#244ab9;stop-opacity:1"/><stop offset="0.24" style="stop-color:#4137a8;stop-opacity:1"/><stop offset="0.44" style="stop-color:#a71c81;stop-opacity:1"/><stop offset="0.74" style="stop-color:#ef8907;stop-opacity:1"/><stop offset="1" style="stop-color:#f6a400;stop-opacity:1"/></linearGradient><linearGradient id="_Linear3" x1="0" y1="0" x2="1" y2="0" gradientUnits="userSpaceOnUse" gradientTransform="matrix(-107.261,1.31527e-14,-1.31356e-14,-107.4,105.088,60.635)"><stop offset="0" style="stop-color:#1682b4;stop-opacity:1"/><stop offset="0.18" style="stop-color:#244ab9;stop-opacity:1"/><stop offset="0.24" style="stop-color:#4137a8;stop-opacity:1"/><stop offset="0.44" style="stop-color:#a71c81;stop-opacity:1"/><stop offset="0.74" style="stop-color:#ef8907;stop-opacity:1"/><stop offset="1" style="stop-color:#f6a400;stop-opacity:1"/></linearGradient><linearGradient id="_Linear4" x1="0" y1="0" x2="1" y2="0" gradientUnits="userSpaceOnUse" gradientTransform="matrix(-107.261,1.31527e-14,-1.31356e-14,-107.4,105.088,60.635)"><stop offset="0" style="stop-color:#1682b4;stop-opacity:1"/><stop offset="0.18" style="stop-color:#244ab9;stop-opacity:1"/><stop offset="0.24" style="stop-color:#4137a8;stop-opacity:1"/><stop offset="0.44" style="stop-color:#a71c81;stop-opacity:1"/><stop offset="0.74" style="stop-color:#ef8907;stop-opacity:1"/><stop offset="1" style="stop-color:#f6a400;stop-opacity:1"/></linearGradient><linearGradient id="_Linear5" x1="0" y1="0" x2="1" y2="0" gradientUnits="userSpaceOnUse" gradientTransform="matrix(-107.261,1.31527e-14,-1.31356e-14,-107.4,105.088,42.4104)"><stop offset="0" style="stop-color:#1682b4;stop-opacity:1"/><stop offset="0.03" style="stop-color:#1d75b2;stop-opacity:1"/><stop offset="0.15" style="stop-color:#3748ab;stop-opacity:1"/><stop offset="0.21" style="stop-color:#4137a8;stop-opacity:1"/><stop offset="1" style="stop-color:#4137a8;stop-opacity:1"/></linearGradient><linearGradient id="_Linear6" x1="0" y1="0" x2="1" y2="0" gradientUnits="userSpaceOnUse" gradientTransform="matrix(-107.261,1.31527e-14,-1.31356e-14,-107.4,105.088,42.4104)"><stop offset="0" style="stop-color:#1682b4;stop-opacity:1"/><stop offset="0.18" style="stop-color:#244ab9;stop-opacity:1"/><stop offset="0.24" style="stop-color:#4137a8;stop-opacity:1"/><stop offset="0.44" style="stop-color:#a71c81;stop-opacity:1"/><stop offset="0.74" style="stop-color:#ef8907;stop-opacity:1"/><stop offset="1" style="stop-color:#f6a400;stop-opacity:1"/></linearGradient><linearGradient id="_Linear7" x1="0" y1="0" x2="1" y2="0" gradientUnits="userSpaceOnUse" gradientTransform="matrix(-107.261,1.31527e-14,-1.31356e-14,-107.4,105.088,24.1854)"><stop offset="0" style="stop-color:#b83664;stop-opacity:1"/><stop offset="0.4" style="stop-color:#b83664;stop-opacity:1"/><stop offset="0.64" style="stop-color:#ef8907;stop-opacity:1"/><stop offset="1" style="stop-color:#f6a400;stop-opacity:1"/></linearGradient><linearGradient id="_Linear8" x1="0" y1="0" x2="1" y2="0" gradientUnits="userSpaceOnUse" gradientTransform="matrix(-107.261,1.31527e-14,-1.31356e-14,-107.4,105.088,42.4104)"><stop offset="0" style="stop-color:#4137a8;stop-opacity:1"/><stop offset="0.28" style="stop-color:#4137a8;stop-opacity:1"/><stop offset="0.51" style="stop-color:#a71c81;stop-opacity:1"/><stop offset="1" style="stop-color:#a71c81;stop-opacity:1"/></linearGradient><linearGradient id="_Linear9" x1="0" y1="0" x2="1" y2="0" gradientUnits="userSpaceOnUse" gradientTransform="matrix(1.86899e-15,-30.5625,30.523,1.87141e-15,91.6808,30.5604)"><stop offset="0" style="stop-color:#1d958d;stop-opacity:1"/><stop offset="0.1" style="stop-color:#1d958d;stop-opacity:1"/><stop offset="0.73" style="stop-color:#29ab70;stop-opacity:1"/><stop offset="1" style="stop-color:#29ab70;stop-opacity:1"/></linearGradient><linearGradient id="_Linear10" x1="0" y1="0" x2="1" y2="0" gradientUnits="userSpaceOnUse" gradientTransform="matrix(1.86899e-15,-30.5625,30.523,1.87141e-15,91.6808,30.5604)"><stop offset="0" style="stop-color:#1d958d;stop-opacity:1"/><stop offset="0.1" style="stop-color:#1d958d;stop-opacity:1"/><stop offset="0.73" style="stop-color:#29ab70;stop-opacity:1"/><stop offset="1" style="stop-color:#29ab70;stop-opacity:1"/></linearGradient></defs></svg>