<?xml version="1.0" encoding="UTF-8" standalone="no"?><!DOCTYPE svg PUBLIC "-//W3C//DTD SVG 1.1//EN" "http://www.w3.org/Graphics/SVG/1.1/DTD/svg11.dtd"><svg width="100%" height="100%" viewBox="0 0 103 103" version="1.1" xmlns="http://www.w3.org/2000/svg" xmlns:xlink="http://www.w3.org/1999/xlink" xml:space="preserve" xmlns:serif="http://www.serif.com/" style="fill-rule:evenodd;clip-rule:evenodd;stroke-linejoin:round;stroke-miterlimit:2;"><g id="icons"><g><g id="Artboard-Copy-3_1_"><g id="US-UK_Apple_Music_lockup_RGB_blk_1_"><g id="Group-2_1_"><path id="_Path__1_" d="M75.124,0.032c4.155,-0.159 8.309,0.275 12.342,1.283c2.529,0.746 4.888,1.975 6.954,3.617c2.75,2.175 4.913,5.004 6.279,8.233c1.534,4.646 2.209,9.538 1.988,14.425l0,47.521c0.221,4.887 -0.45,9.779 -1.988,14.425c-1.366,3.229 -3.529,6.058 -6.279,8.233c-2.062,1.642 -4.425,2.871 -6.954,3.617c-4.033,1.008 -8.187,1.442 -12.342,1.283l-47.52,0c-4.155,0.159 -8.309,-0.275 -12.342,-1.283c-2.529,-0.746 -4.888,-1.975 -6.954,-3.617c-2.75,-2.175 -4.913,-5.004 -6.279,-8.233c-1.534,-4.646 -2.209,-9.538 -1.988,-14.425l0,-47.521c-0.221,-4.887 0.45,-9.779 1.988,-14.425c1.366,-3.229 3.529,-6.058 6.279,-8.233c2.062,-1.642 4.425,-2.871 6.954,-3.617c4.033,-1.008 8.187,-1.442 12.342,-1.283l47.52,0" style="fill:#fff;fill-rule:nonzero;"/><g id="_Group_2_1_"><g id="_Clip_Group__1_"><path d="M75.92,17.682c-0.033,-1.925 -1.112,-3.25 -2.996,-2.934c0,0 -30.541,5.984 -34.1,6.725c-2.308,0.484 -3.079,1.93 -3.029,4.355c-0.008,0.204 0,39.579 0,39.579c0,3.966 -3.362,3.025 -7.829,4.15c-7.587,1.908 -7.804,5.262 -8.3,6.321c-0.775,4.229 0.213,8.908 5.946,10.283c2.354,0.562 3.825,0.304 6.162,-0.146c3.78,-0.725 5.692,-2.579 7.35,-6.046c0.78,-1.629 0.855,-4.354 0.855,-6.141c-0.005,-11.259 -0.005,-21.963 -0.005,-33.221c0,-1.879 0.521,-2.471 2.371,-2.842c9.046,-1.792 18.142,-3.683 27.184,-5.462c2.033,-0.405 2.254,0.687 2.254,2.745c0.004,8.43 -0.034,22.217 -0.034,23.546c0,4.75 -8.895,1.825 -14.595,7.092c-2,1.958 -2.35,5.642 -1.725,7.654c0.962,3.067 2.95,4.963 5.983,5.617c1.937,0.421 8.317,1.121 12.083,-3.467c2.546,-3.104 2.363,-4.987 2.363,-7.821l0.062,-49.987Z" style="fill:url(#_Linear1);fill-rule:nonzero;"/></g></g></g></g></g></g></g><defs><linearGradient id="_Linear1" x1="0" y1="0" x2="1" y2="0" gradientUnits="userSpaceOnUse" gradientTransform="matrix(-36.315,-53.8392,53.8392,-36.315,68.3457,79.4547)"><stop offset="0" style="stop-color:#22c9fd;stop-opacity:1"/><stop offset="0.05" style="stop-color:#2abefd;stop-opacity:1"/><stop offset="0.39" style="stop-color:#6b6bff;stop-opacity:1"/><stop offset="0.53" style="stop-color:#756af3;stop-opacity:1"/><stop offset="0.56" style="stop-color:#8d68d6;stop-opacity:1"/><stop offset="0.61" style="stop-color:#ac65b2;stop-opacity:1"/><stop offset="0.63" style="stop-color:#b864a4;stop-opacity:1"/><stop offset="0.73" style="stop-color:#d56182;stop-opacity:1"/><stop offset="0.84" style="stop-color:#ec5f67;stop-opacity:1"/><stop offset="0.93" style="stop-color:#fa5d56;stop-opacity:1"/><stop offset="1" style="stop-color:#ff5d50;stop-opacity:1"/></linearGradient></defs></svg>