<?xml version="1.0" encoding="UTF-8" standalone="no"?><!DOCTYPE svg PUBLIC "-//W3C//DTD SVG 1.1//EN" "http://www.w3.org/Graphics/SVG/1.1/DTD/svg11.dtd"><svg width="100%" height="100%" viewBox="0 0 136 59" version="1.1" xmlns="http://www.w3.org/2000/svg" xmlns:xlink="http://www.w3.org/1999/xlink" xml:space="preserve" xmlns:serif="http://www.serif.com/" style="fill-rule:evenodd;clip-rule:evenodd;stroke-linejoin:round;stroke-miterlimit:2;"><g id="Layer_2"><g><clipPath id="_clip1"><path d="M0.833,35.525l-0.833,7.5l0.833,7.5c0,0.417 0.417,0.417 0.417,0.417c0.417,0 0.417,-0.417 0.417,-0.417l1.25,-7.5l-1.25,-7.5c0,-0.417 -0.417,-0.417 -0.417,-0.417c0,0 -0.417,0 -0.417,0.417m5,-4.583l-1.25,12.083l1.25,12.083c0,0.417 0.417,0.417 0.417,0.417c0.417,0 0.417,-0.417 0.417,-0.417l1.666,-12.083l-1.666,-12.083c0,-0.417 -0.417,-0.417 -0.417,-0.417c0,-0.417 -0.417,0 -0.417,0.417m15.834,-1.667l-0.834,13.75l0.834,14.583c0,0.417 0.416,0.834 0.833,0.834c0.417,0 0.833,-0.417 0.833,-0.834l1.667,-14.583l-1.25,-13.75c0,-0.417 -0.417,-0.833 -0.833,-0.833c-0.834,0 -1.25,0.416 -1.25,0.833m-10.417,-0.833l-1.25,14.583l1.25,13.75c0,0.417 0.417,0.833 0.833,0.833c0,0 0.417,-0.416 0.417,-0.833l1.25,-13.75l-1.25,-14.583c0,-0.417 -0.417,-0.834 -0.833,-0.834c0,0.417 -0.417,0.417 -0.417,0.834m5,-0.417l-1.25,15l1.25,14.167c0,0.416 0.417,0.833 0.833,0.833c0.417,0 0.834,-0.417 0.834,-0.833l1.25,-14.167l-1.25,-15c0,-0.417 -0.417,-0.833 -0.834,-0.833c-0.416,0 -0.416,0.416 -0.833,0.833m10.833,-7.5l-1.25,22.5l1.25,14.583c0,0.417 0.417,0.834 0.834,0.834c0.833,0 1.25,-0.417 1.25,-0.834l1.25,-14.583l-1.25,-22.5c0,-0.417 -0.417,-0.833 -0.834,-0.833c-0.833,0 -1.25,0.416 -1.25,0.833m5.417,-5l-0.833,27.5l0.833,14.583c0,0.834 0.417,1.25 1.25,1.25c0.417,0 1.25,-0.416 1.25,-1.25l1.25,-14.583l-1.25,-27.5c0,-0.833 -0.417,-1.25 -1.25,-1.25c-0.833,0 -1.25,0.417 -1.25,1.25m22.083,-1.25l-0.833,28.75l0.833,13.75c0,0.833 0.834,1.667 1.667,1.667c0.833,0 1.667,-0.834 1.667,-1.667l0.833,-13.75l-0.833,-29.167c0,-0.833 -0.834,-1.666 -1.667,-1.666c-1.25,0.416 -1.667,0.833 -1.667,2.083m-16.666,-1.25l-0.834,30l0.834,14.167c0,0.833 0.416,1.25 1.25,1.25c0.833,0 1.25,-0.417 1.25,-1.25l0.833,-14.167l-0.833,-30c0,-0.833 -0.417,-1.25 -1.25,-1.25c-0.834,0 -1.25,0.833 -1.25,1.25m10.833,0l-0.833,30l0.833,14.167c0,0.833 0.833,1.666 1.667,1.666c0.833,0 1.666,-0.833 1.666,-1.666l0.834,-14.167l-0.834,-30c0,-0.833 -0.833,-1.667 -1.666,-1.667c-0.834,0 -1.667,0.834 -1.667,1.667m-5.417,-0.833l-0.833,30.833l0.833,14.167c0,0.833 0.417,1.25 1.25,1.25c0.834,0 1.25,-0.417 1.25,-1.25l0.834,-14.167l-0.834,-30.833c0,-0.834 -0.833,-1.25 -1.25,-1.25c-0.416,0 -1.25,0.416 -1.25,1.25m16.667,-3.75l-0.833,34.583l0.833,13.75c0,0.833 0.833,1.667 1.667,1.667c0.833,0 1.666,-0.834 1.666,-1.667l0.834,-13.75l-0.834,-34.583c0,-0.834 -0.833,-1.667 -1.666,-1.667c-0.834,0 -1.667,0.833 -1.667,1.667m5.833,-2.917l-0.833,37.5l0.833,13.75c0,0.833 0.834,1.667 1.667,1.667c0.833,0 1.667,-0.834 1.667,-1.667l0.833,-13.75l-0.833,-37.5c0,-0.833 -0.834,-1.667 -1.667,-1.667c-0.833,-0.416 -1.667,0.417 -1.667,1.667m6.667,-3.75c-1.25,0.417 -1.667,0.833 -1.667,2.083l0,52.917c0,0.833 0.834,1.667 1.667,2.083l46.25,0c9.167,0 16.667,-7.5 16.667,-16.666c0,-9.167 -7.5,-16.667 -16.667,-16.667c-2.083,0 -4.583,0.417 -6.25,1.25c-1.25,-15 -13.75,-26.667 -29.167,-26.667c-3.75,-0.416 -7.5,0.417 -10.833,1.667"/></clipPath><g clip-path="url(#_clip1)"><rect x="0" y="-54.892" width="518.75" height="164.167" style="fill:url(#_Linear2);"/></g></g></g><defs><linearGradient id="_Linear2" x1="0" y1="0" x2="1" y2="0" gradientUnits="userSpaceOnUse" gradientTransform="matrix(1.58579e-14,258.98,-258.98,1.58579e-14,259.587,-149.909)"><stop offset="0" style="stop-color:#f8a01d;stop-opacity:1"/><stop offset="0.71" style="stop-color:#f26e23;stop-opacity:1"/><stop offset="1" style="stop-color:#ef5826;stop-opacity:1"/></linearGradient></defs></svg>