<?xml version="1.0" encoding="UTF-8" standalone="no"?><!DOCTYPE svg PUBLIC "-//W3C//DTD SVG 1.1//EN" "http://www.w3.org/Graphics/SVG/1.1/DTD/svg11.dtd"><svg width="100%" height="100%" viewBox="0 0 105 70" version="1.1" xmlns="http://www.w3.org/2000/svg" xmlns:xlink="http://www.w3.org/1999/xlink" xml:space="preserve" xmlns:serif="http://www.serif.com/" style="fill-rule:evenodd;clip-rule:evenodd;stroke-linejoin:round;stroke-miterlimit:2;"><g id="Layer_2"><g><g><path d="M87.083,0c0,0.417 0.417,0.417 0.417,0.833c5.417,5.417 10.833,10.834 15.833,15.834c0.417,0.416 0.417,0.416 0.834,0.416c-5.834,5.834 -11.667,11.667 -17.5,17.5c-5.834,-5.833 -11.25,-11.25 -17.084,-17.083c-5.833,5.833 -11.666,11.667 -17.5,17.5c-5.833,-5.833 -11.666,-11.667 -17.5,-17.5c-5.833,5.833 -11.666,11.667 -17.083,17.083c-5.833,-5.833 -11.667,-11.666 -17.5,-17.5l16.25,-16.25c0.417,-0.416 0.417,-0.416 0.417,-0.833c0,0 0,0.417 0.416,0.417l17.084,17.083l17.083,-17.083c5.833,5.833 11.667,11.666 17.5,17.5l17.083,-17.084l1.25,-0.833Z"/><path d="M35,52.083c5.833,-5.833 11.25,-11.25 17.083,-17.083c5.834,5.833 11.667,11.667 17.084,17.083c-5.834,5.834 -11.667,11.667 -17.084,17.084c-5.833,-5.417 -11.25,-11.25 -17.083,-17.084Z"/></g></g></g></svg>