<?xml version="1.0" encoding="UTF-8" standalone="no"?><!DOCTYPE svg PUBLIC "-//W3C//DTD SVG 1.1//EN" "http://www.w3.org/Graphics/SVG/1.1/DTD/svg11.dtd"><svg width="100%" height="100%" viewBox="0 0 167 117" version="1.1" xmlns="http://www.w3.org/2000/svg" xmlns:xlink="http://www.w3.org/1999/xlink" xml:space="preserve" xmlns:serif="http://www.serif.com/" style="fill-rule:evenodd;clip-rule:evenodd;stroke-linejoin:round;stroke-miterlimit:2;"><g id="icons"><g><g><path d="M162.633,18.154c-1.908,-7.146 -7.537,-12.775 -14.683,-14.683c-12.954,-3.471 -64.896,-3.471 -64.896,-3.471c0,0 -51.942,0 -64.896,3.471c-7.15,1.908 -12.779,7.537 -14.687,14.683c-3.471,12.954 -3.471,39.979 -3.471,39.979c0,0 0,27.025 3.471,39.98c1.908,7.145 7.537,12.775 14.683,14.683c12.954,3.471 64.896,3.471 64.896,3.471c0,0 51.942,0 64.896,-3.471c7.146,-1.908 12.775,-7.538 14.683,-14.683c3.475,-12.955 3.475,-39.98 3.475,-39.98c0,0 0,-27.025 -3.471,-39.979Z" style="fill:#f00;fill-rule:nonzero;"/><path d="M66.442,83.05l43.154,-24.917l-43.154,-24.916l0,49.833Z" style="fill:#fff;fill-rule:nonzero;"/></g></g></g></svg>