<?xml version="1.0" encoding="UTF-8" standalone="no"?><!DOCTYPE svg PUBLIC "-//W3C//DTD SVG 1.1//EN" "http://www.w3.org/Graphics/SVG/1.1/DTD/svg11.dtd"><svg width="100%" height="100%" viewBox="0 0 7809 2674" version="1.1" xmlns="http://www.w3.org/2000/svg" xmlns:xlink="http://www.w3.org/1999/xlink" xml:space="preserve" xmlns:serif="http://www.serif.com/" style="fill-rule:evenodd;clip-rule:evenodd;stroke-linejoin:round;stroke-miterlimit:2;"><g><g><clipPath id="_clip1"><path d="M5094.63,1024.22c-318.575,0 -481.35,250.729 -481.35,628.471c0,357.05 176.004,625.07 481.35,625.07c345.296,0 474.742,-316.008 474.742,-625.07c-0.242,-322.742 -162.934,-628.471 -474.842,-628.471l0.1,0Zm-846.475,-937.429l378.404,0l0,906.508l6.7,0c102.9,-171.65 318.663,-278.142 511.217,-278.142c541.008,0 803.35,425.938 803.35,944.517c0,477.167 -232.342,927.046 -740.329,927.046c-232.363,0 -481.338,-58.229 -594.238,-291.821l-6.562,0l0,243.942l-358.575,0l0,-2452l0.033,-0.05Z"/></clipPath><g clip-path="url(#_clip1)"><rect x="4161.3" y="0" width="1873.32" height="2673.54"/></g></g><g><clipPath id="_clip2"><path d="M7343.42,1357.47c-29.896,-216.354 -182.55,-333.196 -391.7,-333.196c-195.954,0 -471.408,106.512 -471.408,645.696c0,295.346 126.112,607.9 454.791,607.9c219.063,0 371.721,-151.284 408.317,-405.4l378.404,0c-69.721,460.175 -345.192,714.287 -786.721,714.287c-537.791,0 -833.229,-394.825 -833.229,-916.787c0,-535.696 282.171,-954.671 846.513,-954.671c398.333,0 737.045,206.025 773.437,642.204l-377.779,0l-0.625,-0.033Z"/></clipPath><g clip-path="url(#_clip2)"><rect x="6015.09" y="628.475" width="1793.56" height="2045.07"/></g></g><g><clipPath id="_clip3"><path d="M2925.14,2533.51l-2838.33,0l1325.45,-2446.7l2838.35,0l-1325.47,2446.7Z"/></clipPath><g clip-path="url(#_clip3)"><rect x="0" y="0" width="4337.42" height="2620.31" style="fill:#61919b;"/></g></g></g></svg>