<?xml version="1.0" encoding="UTF-8" standalone="no"?><!DOCTYPE svg PUBLIC "-//W3C//DTD SVG 1.1//EN" "http://www.w3.org/Graphics/SVG/1.1/DTD/svg11.dtd"><svg width="100%" height="100%" viewBox="0 0 157 157" version="1.1" xmlns="http://www.w3.org/2000/svg" xmlns:xlink="http://www.w3.org/1999/xlink" xml:space="preserve" xmlns:serif="http://www.serif.com/" style="fill-rule:evenodd;clip-rule:evenodd;stroke-linejoin:round;stroke-miterlimit:2;"><g id="icons"><g><g><path d="M114.154,112.579c1.409,-2.287 0.675,-5.279 -1.612,-6.687c-20.575,-12.575 -46.084,-15.5 -75.821,-8.7c-2.621,0.596 -4.254,3.204 -3.663,5.825c0.6,2.616 3.213,4.262 5.829,3.658c27.171,-6.204 50.25,-3.675 68.58,7.529c2.291,1.4 5.287,0.679 6.687,-1.625Z" style="fill:#fff;fill-rule:nonzero;"/><path d="M134.533,66.642c2.054,-3.463 0.913,-7.946 -2.55,-10.004c-28.966,-17.196 -74.812,-18.817 -102.383,-10.442c-3.858,1.171 -6.029,5.25 -4.867,9.108c1.167,3.859 5.25,6.034 9.104,4.867c24.03,-7.292 65.53,-5.917 90.696,9.025c3.459,2.058 7.95,0.917 10,-2.554Z" style="fill:#fff;fill-rule:nonzero;"/><path d="M121.738,82.967c-24.1,-14.809 -59.359,-18.975 -87.705,-10.371c-3.216,0.979 -5.033,4.371 -4.071,7.592c0.975,3.208 4.376,5.025 7.592,4.054c24.817,-7.534 56.842,-3.796 77.817,9.096c2.862,1.758 5.979,0.862 8.4,-2.005l0,0.005c2.421,-2.867 0.829,-6.613 -2.034,-8.371Z" style="fill:#fff;fill-rule:nonzero;"/><path d="M77.771,0c-43.579,-0.004 -77.771,34.946 -77.771,78.054c0,43.117 35.096,78.067 78.208,78.067c43.117,0 77.842,-34.946 77.842,-78.067c0,-43.104 -34.7,-78.054 -78.279,-78.054Zm-38.884,106.675c-2.616,0.604 -5.229,-1.037 -5.829,-3.658c-0.591,-2.617 1.042,-5.229 3.663,-5.825c29.737,-6.8 55.241,-3.875 75.821,8.7c2.291,1.408 3.025,4.4 1.612,6.691l0.004,-0.004c-1.4,2.3 -4.4,3.021 -6.687,1.621c-18.334,-11.204 -41.413,-13.729 -68.584,-7.525Zm84.884,-15.342c-2.421,2.863 -5.542,3.759 -8.404,2c-20.975,-12.891 -52.984,-16.629 -77.8,-9.095c-3.217,0.97 -6.63,-0.842 -7.605,-4.055c-0.966,-3.22 0.842,-6.612 4.059,-7.591c28.35,-8.6 63.621,-4.438 87.721,10.371c2.858,1.762 4.45,5.508 2.029,8.37Zm0.762,-22.137c-25.162,-14.942 -66.666,-16.317 -90.696,-9.025c-3.854,1.167 -7.937,-1.008 -9.104,-4.867c-1.166,-3.858 1.009,-7.937 4.867,-9.108c27.571,-8.375 73.417,-6.754 102.383,10.442c3.467,2.058 4.605,6.541 2.55,10.004c-2.05,3.471 -6.541,4.612 -10,2.554Z" style="fill:#24cf5f;fill-rule:nonzero;"/></g></g></g></svg>