<?xml version="1.0" encoding="UTF-8" standalone="no"?>
<!DOCTYPE svg PUBLIC "-//W3C//DTD SVG 1.1//EN" "http://www.w3.org/Graphics/SVG/1.1/DTD/svg11.dtd">
<svg width="100%" height="100%" viewBox="0 0 29 23" version="1.1" xmlns="http://www.w3.org/2000/svg" xmlns:xlink="http://www.w3.org/1999/xlink" xml:space="preserve" xmlns:serif="http://www.serif.com/" style="fill-rule:evenodd;clip-rule:evenodd;stroke-linejoin:round;stroke-miterlimit:2;">
    <g transform="matrix(1,0,0,1,0.001,-3.999)">
        <path d="M28,11.094L28,23.5C28,24.875 26.875,26 25.5,26L2.5,26C1.125,26 0,24.875 0,23.5L0,11.094C0.469,11.61 1,12.063 1.578,12.453C4.172,14.219 6.797,15.984 9.344,17.844C10.657,18.813 12.282,20 13.985,20L14.016,20C15.719,20 17.344,18.812 18.657,17.844C21.204,16 23.829,14.219 26.438,12.453C27,12.062 27.532,11.609 28.001,11.094L28,11.094ZM28,6.5C28,8.25 26.703,9.828 25.328,10.781C22.89,12.468 20.437,14.156 18.015,15.859C16.999,16.562 15.281,18 14.015,18L13.984,18C12.718,18 11,16.563 9.984,15.859C7.562,14.156 5.109,12.468 2.687,10.781C1.578,10.031 -0.001,8.265 -0.001,6.843C-0.001,5.312 0.827,3.999 2.499,3.999L25.499,3.999C26.858,3.999 27.999,5.124 27.999,6.499L28,6.5Z" style="fill:white;fill-rule:nonzero;"/>
    </g>
</svg>
