<?xml version="1.0" encoding="UTF-8" standalone="no"?>
<!DOCTYPE svg PUBLIC "-//W3C//DTD SVG 1.1//EN" "http://www.w3.org/Graphics/SVG/1.1/DTD/svg11.dtd">
<svg width="100%" height="100%" viewBox="0 0 26 28" version="1.1" xmlns="http://www.w3.org/2000/svg" xmlns:xlink="http://www.w3.org/1999/xlink" xml:space="preserve" xmlns:serif="http://www.serif.com/" style="fill-rule:evenodd;clip-rule:evenodd;stroke-linejoin:round;stroke-miterlimit:2;">
    <g transform="matrix(-1,0,0,1,26,0)">
        <path d="M22.75,19C22.75,18.594 22.594,18.219 22.312,17.938L19.062,14.688C18.781,14.407 18.39,14.25 18,14.25C17.547,14.25 17.188,14.422 16.875,14.75C17.391,15.266 18,15.703 18,16.5C18,17.328 17.328,18 16.5,18C15.703,18 15.266,17.391 14.75,16.875C14.422,17.188 14.234,17.547 14.234,18.016C14.234,18.407 14.39,18.797 14.672,19.078L17.891,22.312C18.172,22.593 18.563,22.734 18.953,22.734C19.343,22.734 19.734,22.593 20.015,22.328L22.312,20.047C22.593,19.766 22.75,19.391 22.75,19ZM11.766,7.984C11.766,7.593 11.61,7.203 11.328,6.922L8.109,3.688C7.828,3.407 7.437,3.25 7.047,3.25C6.657,3.25 6.266,3.406 5.985,3.672L3.688,5.953C3.407,6.234 3.25,6.609 3.25,7C3.25,7.406 3.406,7.781 3.688,8.062L6.938,11.312C7.219,11.593 7.61,11.734 8,11.734C8.453,11.734 8.812,11.578 9.125,11.25C8.609,10.734 8,10.297 8,9.5C8,8.672 8.672,8 9.5,8C10.297,8 10.734,8.609 11.25,9.125C11.578,8.812 11.766,8.453 11.766,7.984ZM25.75,19C25.75,20.188 25.266,21.344 24.422,22.172L22.125,24.453C21.281,25.297 20.141,25.75 18.953,25.75C17.75,25.75 16.609,25.281 15.766,24.422L12.547,21.188C11.703,20.344 11.25,19.204 11.25,18.016C11.25,16.782 11.75,15.61 12.625,14.75L11.25,13.375C10.391,14.25 9.234,14.75 8,14.75C6.812,14.75 5.656,14.281 4.813,13.437L1.563,10.187C0.704,9.328 0.25,8.203 0.25,7C0.25,5.812 0.734,4.656 1.578,3.828L3.875,1.547C4.719,0.703 5.859,0.25 7.047,0.25C8.25,0.25 9.391,0.719 10.234,1.578L13.453,4.812C14.297,5.656 14.75,6.796 14.75,7.984C14.75,9.218 14.25,10.39 13.375,11.25L14.75,12.625C15.609,11.75 16.766,11.25 18,11.25C19.188,11.25 20.344,11.719 21.187,12.563L24.437,15.813C25.296,16.672 25.75,17.797 25.75,19Z" style="fill:white;fill-rule:nonzero;"/>
    </g>
</svg>
