<?xml version="1.0" encoding="UTF-8" standalone="no"?>
<!DOCTYPE svg PUBLIC "-//W3C//DTD SVG 1.1//EN" "http://www.w3.org/Graphics/SVG/1.1/DTD/svg11.dtd">
<svg width="100%" height="100%" viewBox="0 0 12 12" version="1.1" xmlns="http://www.w3.org/2000/svg" xmlns:xlink="http://www.w3.org/1999/xlink" xml:space="preserve" xmlns:serif="http://www.serif.com/" style="fill-rule:evenodd;clip-rule:evenodd;stroke-linejoin:round;stroke-miterlimit:2;">
    <path d="M3.283,9.656L2.029,9.656C1.577,9.656 1.21,9.289 1.21,8.837L1.21,2.611C1.21,2.159 1.577,1.792 2.029,1.792L10.005,1.792C10.457,1.792 10.824,2.159 10.824,2.611L10.824,8.837C10.824,9.289 10.457,9.656 10.005,9.656L4.873,9.656L4.078,10.719L3.283,9.656ZM2.704,6.253L2.163,6.253C2.161,6.429 2.19,6.581 2.249,6.709C2.308,6.837 2.388,6.943 2.489,7.025C2.59,7.108 2.706,7.169 2.838,7.207C2.969,7.246 3.105,7.265 3.245,7.265C3.418,7.265 3.57,7.243 3.702,7.197C3.834,7.152 3.944,7.089 4.033,7.007C4.122,6.926 4.189,6.829 4.234,6.717C4.279,6.605 4.301,6.484 4.301,6.353C4.301,6.193 4.271,6.062 4.211,5.959C4.15,5.857 4.079,5.775 3.996,5.713C3.912,5.652 3.829,5.607 3.745,5.579L3.161,5.409C3.063,5.38 2.986,5.351 2.93,5.321C2.874,5.292 2.837,5.26 2.818,5.225C2.799,5.191 2.79,5.145 2.79,5.089C2.79,5.028 2.801,4.977 2.825,4.937C2.849,4.897 2.879,4.864 2.916,4.837C2.953,4.811 2.994,4.792 3.039,4.781C3.084,4.771 3.129,4.765 3.174,4.765C3.243,4.765 3.306,4.772 3.364,4.785C3.422,4.799 3.474,4.821 3.519,4.853C3.564,4.885 3.6,4.929 3.627,4.985C3.655,5.041 3.671,5.112 3.675,5.197L4.216,5.197C4.216,5.032 4.188,4.891 4.132,4.775C4.077,4.659 4.001,4.564 3.907,4.489C3.812,4.415 3.703,4.361 3.581,4.327C3.459,4.294 3.331,4.277 3.199,4.277C3.085,4.277 2.971,4.295 2.857,4.329C2.743,4.364 2.641,4.417 2.551,4.489C2.461,4.561 2.388,4.651 2.332,4.759C2.277,4.867 2.249,4.995 2.249,5.141C2.249,5.272 2.271,5.383 2.315,5.475C2.359,5.567 2.416,5.644 2.487,5.705C2.558,5.767 2.639,5.817 2.729,5.855C2.819,5.894 2.912,5.927 3.007,5.953C3.099,5.983 3.19,6.009 3.28,6.033C3.371,6.057 3.451,6.085 3.522,6.117C3.594,6.149 3.651,6.189 3.695,6.237C3.739,6.285 3.761,6.348 3.761,6.425C3.761,6.497 3.744,6.557 3.711,6.603C3.678,6.65 3.636,6.687 3.586,6.713C3.537,6.74 3.483,6.758 3.426,6.767C3.369,6.777 3.316,6.781 3.266,6.781C3.193,6.781 3.122,6.771 3.053,6.751C2.984,6.731 2.924,6.701 2.873,6.659C2.822,6.618 2.781,6.564 2.75,6.497C2.72,6.431 2.704,6.349 2.704,6.253ZM8.239,6.253L7.699,6.253C7.696,6.429 7.725,6.581 7.784,6.709C7.843,6.837 7.923,6.943 8.024,7.025C8.125,7.108 8.241,7.169 8.373,7.207C8.504,7.246 8.64,7.265 8.78,7.265C8.953,7.265 9.106,7.243 9.237,7.197C9.369,7.152 9.479,7.089 9.568,7.007C9.657,6.926 9.724,6.829 9.769,6.717C9.814,6.605 9.837,6.484 9.837,6.353C9.837,6.193 9.806,6.062 9.746,5.959C9.685,5.857 9.614,5.775 9.531,5.713C9.448,5.652 9.364,5.607 9.28,5.579L8.697,5.409C8.598,5.38 8.521,5.351 8.465,5.321C8.41,5.292 8.372,5.26 8.353,5.225C8.334,5.191 8.325,5.145 8.325,5.089C8.325,5.028 8.337,4.977 8.36,4.937C8.384,4.897 8.414,4.864 8.451,4.837C8.488,4.811 8.529,4.792 8.574,4.781C8.619,4.771 8.664,4.765 8.709,4.765C8.778,4.765 8.841,4.772 8.899,4.785C8.957,4.799 9.009,4.821 9.054,4.853C9.099,4.885 9.135,4.929 9.163,4.985C9.19,5.041 9.206,5.112 9.211,5.197L9.751,5.197C9.751,5.032 9.723,4.891 9.668,4.775C9.612,4.659 9.537,4.564 9.442,4.489C9.347,4.415 9.238,4.361 9.116,4.327C8.994,4.294 8.867,4.277 8.734,4.277C8.62,4.277 8.506,4.295 8.392,4.329C8.279,4.364 8.177,4.417 8.086,4.489C7.996,4.561 7.923,4.651 7.868,4.759C7.812,4.867 7.784,4.995 7.784,5.141C7.784,5.272 7.806,5.383 7.85,5.475C7.894,5.567 7.951,5.644 8.022,5.705C8.094,5.767 8.174,5.817 8.264,5.855C8.354,5.894 8.447,5.927 8.542,5.953C8.634,5.983 8.726,6.009 8.816,6.033C8.906,6.057 8.986,6.085 9.058,6.117C9.129,6.149 9.186,6.189 9.23,6.237C9.274,6.285 9.296,6.348 9.296,6.425C9.296,6.497 9.279,6.557 9.246,6.603C9.213,6.65 9.171,6.687 9.122,6.713C9.072,6.74 9.018,6.758 8.962,6.767C8.905,6.777 8.851,6.781 8.801,6.781C8.728,6.781 8.657,6.771 8.588,6.751C8.519,6.731 8.459,6.701 8.408,6.659C8.357,6.618 8.316,6.564 8.286,6.497C8.255,6.431 8.239,6.349 8.239,6.253ZM4.632,4.345L4.632,7.201L5.155,7.201L5.155,5.197L5.162,5.197L5.785,7.201L6.215,7.201L6.838,5.177L6.845,5.177L6.845,7.201L7.368,7.201L7.368,4.345L6.582,4.345L6.02,6.309L6.013,6.309L5.418,4.345L4.632,4.345Z" style="fill:white;"/>
</svg>
